<?xml version="1.0" encoding="UTF-8" standalone="no"?><!DOCTYPE svg PUBLIC "-//W3C//DTD SVG 1.1//EN" "http://www.w3.org/Graphics/SVG/1.1/DTD/svg11.dtd"><svg width="100%" height="100%" viewBox="0 0 440 120" version="1.1" xmlns="http://www.w3.org/2000/svg" xmlns:xlink="http://www.w3.org/1999/xlink" xml:space="preserve" style="fill-rule:evenodd;clip-rule:evenodd;stroke-linejoin:round;stroke-miterlimit:1.41421;"><g id="Layer1"><path d="M72.173,26.424l57.462,-23.661l-17.384,34.768l-2.936,-1.211l13.702,-27.406l-46.683,19.223l60.484,24.905l-64.645,64.645l0,-0.001l-64.644,-64.644l60.484,-24.905l-46.684,-19.223l13.686,27.372l-2.938,1.208l-17.366,-34.731l57.462,23.661Zm-59.044,27.739l54.564,54.564l-29.684,-59.369l2.938,-1.208l31.226,62.453l31.22,-62.44l2.937,1.211l-29.677,59.353l54.564,-54.564l-59.044,-24.313l-59.044,24.313Z" style="fill:#fff;"/><path d="M181.801,19.398l-0.044,3.825l-15.786,0l0,10.114l14.203,0l0,3.826l-14.203,0l0,13.015l-4.222,0l0,-30.78l20.052,0Z" style="fill:#fff;fill-rule:nonzero;"/><path d="M206.601,50.178l-6.112,-9.674c-0.704,0.059 -1.275,0.088 -1.715,0.088l-7.827,0l0,9.586l-4.221,0l0,-30.78l12.048,0c3.899,0 6.911,0.901 9.036,2.704c2.126,1.803 3.188,4.361 3.188,7.673c0,2.492 -0.579,4.588 -1.737,6.288c-1.158,1.701 -2.821,2.932 -4.99,3.694l7.167,10.421l-4.837,0Zm-7.827,-13.411c2.638,0 4.661,-0.579 6.068,-1.737c1.407,-1.158 2.111,-2.866 2.111,-5.123c0,-2.198 -0.704,-3.862 -2.111,-4.991c-1.407,-1.128 -3.43,-1.693 -6.068,-1.693l-7.827,0l0,13.544l7.827,0Z" style="fill:#fff;fill-rule:nonzero;"/><rect x="218.517" y="19.398" width="4.221" height="30.78" style="fill:#fff;fill-rule:nonzero;"/><path d="M247.891,34.876c1.817,1.436 2.726,3.371 2.726,5.804c0,1.906 -0.491,3.591 -1.473,5.057c-0.982,1.466 -2.374,2.609 -4.177,3.43c-1.803,0.821 -3.906,1.231 -6.31,1.231c-1.935,0 -3.877,-0.293 -5.827,-0.879c-1.949,-0.587 -3.627,-1.363 -5.034,-2.331l1.802,-3.43c1.232,0.968 2.609,1.715 4.134,2.243c1.524,0.528 3.078,0.791 4.661,0.791c2.521,0 4.5,-0.542 5.936,-1.627c1.437,-1.084 2.155,-2.535 2.155,-4.353c0,-1.817 -0.718,-3.202 -2.155,-4.155c-1.436,-0.953 -3.459,-1.429 -6.068,-1.429l-4.221,0l0,-2.683l9.454,-9.322l-14.203,0l-0.044,-3.825l19.787,0l0,2.682l-10.333,10.246l1.847,0.132c3.078,0.175 5.525,0.982 7.343,2.418Z" style="fill:#fff;fill-rule:nonzero;"/><path d="M277.902,21.399c2.418,1.333 4.316,3.173 5.694,5.518c1.378,2.345 2.067,4.969 2.067,7.871c0,2.902 -0.696,5.526 -2.089,7.871c-1.392,2.345 -3.305,4.185 -5.738,5.519c-2.433,1.333 -5.16,2 -8.179,2l-12.4,0l0,-30.78l12.532,0c2.99,0 5.694,0.667 8.113,2.001Zm-2.199,23.459c1.744,-0.997 3.122,-2.375 4.134,-4.134c1.011,-1.759 1.517,-3.723 1.517,-5.892c0,-2.199 -0.513,-4.177 -1.539,-5.936c-1.026,-1.759 -2.426,-3.144 -4.2,-4.156c-1.773,-1.011 -3.745,-1.517 -5.914,-1.517l-8.223,0l0,23.13l8.399,0c2.14,0 4.082,-0.499 5.826,-1.495Z" style="fill:#fff;fill-rule:nonzero;"/><path d="M321.412,23.905c-1.553,-0.689 -3.151,-1.033 -4.793,-1.033c-2.169,0 -4.162,0.527 -5.98,1.583c-1.817,1.055 -3.254,2.484 -4.309,4.287c-1.056,1.803 -1.583,3.789 -1.583,5.958c0,2.14 0.527,4.119 1.583,5.936c1.055,1.818 2.492,3.254 4.309,4.31c1.818,1.055 3.811,1.583 5.98,1.583c1.613,0 3.196,-0.33 4.749,-0.99c1.554,-0.659 2.932,-1.561 4.134,-2.704l2.55,2.77c-1.554,1.525 -3.357,2.719 -5.409,3.584c-2.052,0.865 -4.133,1.297 -6.244,1.297c-2.931,0 -5.613,-0.696 -8.047,-2.089c-2.433,-1.392 -4.353,-3.29 -5.76,-5.694c-1.407,-2.404 -2.111,-5.057 -2.111,-7.959c0,-2.873 0.711,-5.504 2.133,-7.893c1.422,-2.389 3.364,-4.273 5.826,-5.65c2.463,-1.378 5.174,-2.067 8.135,-2.067c2.14,0 4.214,0.403 6.222,1.209c2.008,0.806 3.745,1.942 5.211,3.408l-2.506,3.034c-1.173,-1.231 -2.536,-2.191 -4.09,-2.88Z" style="fill:#fff;fill-rule:nonzero;"/><path d="M353.38,42.703l-16.226,0l-3.21,7.475l-4.441,0l13.675,-30.78l4.398,0l13.631,30.78l-4.573,0l-3.254,-7.475Zm-1.627,-3.826l-6.508,-14.95l-6.42,14.95l12.928,0Z" style="fill:#fff;fill-rule:nonzero;"/><path d="M370.705,19.398l11.257,21.634l11.169,-21.634l5.057,0l0,30.78l-3.958,0l-0.044,-24.58l-10.949,21.326l-2.594,0l-11.037,-21.326l0,24.58l-3.914,0l0,-30.78l5.013,0Z" style="fill:#fff;fill-rule:nonzero;"/><path d="M427.759,22.124c2.096,1.818 3.144,4.368 3.144,7.651c0,3.43 -1.056,6.09 -3.166,7.981c-2.111,1.891 -5.072,2.836 -8.883,2.836l-7.651,0l0,9.586l-4.221,0l0,-30.78l11.872,0c3.841,0 6.809,0.909 8.905,2.726Zm-3.012,12.906c1.407,-1.158 2.11,-2.866 2.11,-5.123c0,-2.198 -0.703,-3.862 -2.11,-4.991c-1.407,-1.128 -3.43,-1.693 -6.068,-1.693l-7.476,0.044l0,13.5l7.476,0c2.638,0 4.661,-0.579 6.068,-1.737Z" style="fill:#fff;fill-rule:nonzero;"/><path d="M176.172,86.805l0,2.181l-17.448,0l0,-2.005l9.709,-10.132c1.126,-1.172 2.017,-2.315 2.674,-3.429c0.656,-1.114 0.985,-2.082 0.985,-2.903c0,-1.289 -0.481,-2.298 -1.443,-3.025c-0.961,-0.727 -2.298,-1.09 -4.01,-1.09c-1.172,0 -2.38,0.263 -3.623,0.791c-1.243,0.528 -2.369,1.261 -3.377,2.199l-1.091,-1.794c1.196,-1.056 2.527,-1.876 3.993,-2.463c1.466,-0.586 2.926,-0.879 4.38,-0.879c2.345,0 4.215,0.539 5.61,1.618c1.396,1.079 2.094,2.521 2.094,4.327c0,1.102 -0.405,2.339 -1.214,3.711c-0.809,1.372 -1.917,2.797 -3.324,4.274l-8.302,8.619l14.387,0Z" style="fill:#fff;fill-rule:nonzero;"/><path d="M197.947,67.475c1.736,2.145 2.603,5.212 2.603,9.199c0,3.986 -0.867,7.058 -2.603,9.216c-1.735,2.158 -4.233,3.236 -7.493,3.236c-3.236,0 -5.728,-1.078 -7.475,-3.236c-1.747,-2.158 -2.621,-5.23 -2.621,-9.216c0,-3.987 0.874,-7.054 2.621,-9.199c1.747,-2.146 4.239,-3.219 7.475,-3.219c3.26,0 5.758,1.073 7.493,3.219Zm-13.156,1.371c-1.29,1.771 -1.935,4.38 -1.935,7.828c0,3.447 0.645,6.056 1.935,7.827c1.29,1.77 3.178,2.655 5.663,2.655c2.486,0 4.38,-0.885 5.682,-2.655c1.301,-1.771 1.952,-4.38 1.952,-7.827c0,-3.448 -0.651,-6.057 -1.952,-7.828c-1.302,-1.77 -3.196,-2.655 -5.682,-2.655c-2.485,0 -4.373,0.885 -5.663,2.655Z" style="fill:#fff;fill-rule:nonzero;"/><path d="M211.139,64.361l0,24.625l-2.427,0l0,-22.444l-5.945,0l0,-2.181l8.372,0Z" style="fill:#fff;fill-rule:nonzero;"/><path d="M232.316,65.874c1.384,1.079 2.075,2.58 2.075,4.503c0,1.29 -0.351,2.392 -1.055,3.306c-0.703,0.915 -1.712,1.619 -3.025,2.111c1.665,0.493 2.961,1.278 3.887,2.357c0.926,1.079 1.389,2.392 1.389,3.94c0,2.181 -0.803,3.899 -2.409,5.153c-1.607,1.255 -3.794,1.882 -6.561,1.882c-2.791,0 -4.989,-0.621 -6.596,-1.864c-1.606,-1.243 -2.409,-2.943 -2.409,-5.101c0,-1.571 0.475,-2.902 1.424,-3.992c0.95,-1.091 2.269,-1.882 3.958,-2.375c-1.337,-0.492 -2.375,-1.208 -3.113,-2.146c-0.739,-0.938 -1.108,-2.052 -1.108,-3.342c0,-1.876 0.703,-3.353 2.11,-4.432c1.407,-1.079 3.307,-1.618 5.699,-1.618c2.439,0 4.35,0.539 5.734,1.618Zm-9.92,1.389c-1.009,0.786 -1.513,1.871 -1.513,3.254c0,1.384 0.51,2.475 1.53,3.272c1.021,0.797 2.422,1.196 4.204,1.196c1.782,0 3.172,-0.399 4.169,-1.196c0.996,-0.797 1.495,-1.888 1.495,-3.272c0,-1.383 -0.499,-2.468 -1.495,-3.254c-0.997,-0.785 -2.387,-1.178 -4.169,-1.178c-1.806,0 -3.213,0.393 -4.221,1.178Zm-0.721,10.976c-1.185,0.879 -1.777,2.093 -1.777,3.641c0,1.665 0.592,2.961 1.777,3.887c1.184,0.926 2.831,1.389 4.942,1.389c2.087,0 3.723,-0.463 4.907,-1.389c1.185,-0.926 1.777,-2.21 1.777,-3.852c0,-1.548 -0.598,-2.767 -1.794,-3.658c-1.196,-0.892 -2.838,-1.337 -4.925,-1.337c-2.087,0 -3.723,0.439 -4.907,1.319Z" style="fill:#fff;fill-rule:nonzero;"/><path d="M251.804,76.674l0,12.312l-1.213,0l0,-11.222l-2.973,0l0,-1.09l4.186,0Z" style="fill:#fff;fill-rule:nonzero;"/><path d="M262.393,77.43c0.692,0.539 1.038,1.29 1.038,2.251c0,0.645 -0.176,1.196 -0.528,1.654c-0.352,0.457 -0.856,0.809 -1.513,1.055c0.833,0.246 1.481,0.639 1.944,1.178c0.463,0.54 0.695,1.196 0.695,1.97c0,1.091 -0.402,1.95 -1.205,2.577c-0.803,0.627 -1.897,0.941 -3.281,0.941c-1.395,0 -2.494,-0.311 -3.297,-0.932c-0.804,-0.622 -1.205,-1.472 -1.205,-2.551c0,-0.785 0.237,-1.451 0.712,-1.996c0.475,-0.545 1.135,-0.941 1.979,-1.187c-0.669,-0.246 -1.187,-0.604 -1.557,-1.073c-0.369,-0.469 -0.554,-1.026 -0.554,-1.671c0,-0.938 0.352,-1.677 1.055,-2.216c0.704,-0.54 1.654,-0.809 2.85,-0.809c1.219,0 2.175,0.269 2.867,0.809Zm-4.96,0.695c-0.504,0.392 -0.757,0.935 -0.757,1.627c0,0.691 0.256,1.237 0.766,1.635c0.51,0.399 1.21,0.598 2.101,0.598c0.892,0 1.586,-0.199 2.085,-0.598c0.498,-0.398 0.747,-0.944 0.747,-1.635c0,-0.692 -0.249,-1.235 -0.747,-1.627c-0.499,-0.393 -1.193,-0.59 -2.085,-0.59c-0.902,0 -1.606,0.197 -2.11,0.59Zm-0.361,5.487c-0.592,0.44 -0.888,1.047 -0.888,1.821c0,0.832 0.296,1.48 0.888,1.943c0.592,0.463 1.416,0.695 2.471,0.695c1.044,0 1.862,-0.232 2.454,-0.695c0.592,-0.463 0.888,-1.105 0.888,-1.926c0,-0.774 -0.299,-1.383 -0.897,-1.829c-0.598,-0.445 -1.419,-0.668 -2.462,-0.668c-1.044,0 -1.862,0.22 -2.454,0.659Z" style="fill:#fff;fill-rule:nonzero;"/><rect x="266.298" y="83.234" width="4.081" height="0.862" style="fill:#fff;fill-rule:nonzero;"/><path d="M280.949,87.895l0,1.091l-8.724,0l0,-1.003l4.855,-5.065c0.562,-0.587 1.008,-1.158 1.336,-1.715c0.329,-0.557 0.493,-1.041 0.493,-1.451c0,-0.645 -0.241,-1.15 -0.721,-1.513c-0.481,-0.364 -1.15,-0.545 -2.006,-0.545c-0.586,0 -1.19,0.132 -1.811,0.395c-0.622,0.264 -1.184,0.631 -1.689,1.1l-0.545,-0.897c0.598,-0.528 1.264,-0.938 1.996,-1.232c0.733,-0.293 1.463,-0.439 2.19,-0.439c1.173,0 2.108,0.269 2.806,0.809c0.697,0.539 1.046,1.26 1.046,2.163c0,0.551 -0.202,1.17 -0.607,1.856c-0.404,0.686 -0.958,1.398 -1.662,2.137l-4.151,4.309l7.194,0Z" style="fill:#fff;fill-rule:nonzero;"/><path d="M291.837,78.23c0.867,1.073 1.301,2.606 1.301,4.6c0,1.993 -0.434,3.529 -1.301,4.608c-0.868,1.079 -2.117,1.618 -3.747,1.618c-1.618,0 -2.864,-0.539 -3.737,-1.618c-0.874,-1.079 -1.311,-2.615 -1.311,-4.608c0,-1.994 0.437,-3.527 1.311,-4.6c0.873,-1.073 2.119,-1.609 3.737,-1.609c1.63,0 2.879,0.536 3.747,1.609Zm-6.579,0.686c-0.645,0.885 -0.967,2.19 -0.967,3.914c0,1.723 0.322,3.028 0.967,3.913c0.645,0.885 1.589,1.328 2.832,1.328c1.243,0 2.19,-0.443 2.841,-1.328c0.651,-0.885 0.976,-2.19 0.976,-3.913c0,-1.724 -0.325,-3.029 -0.976,-3.914c-0.651,-0.885 -1.598,-1.328 -2.841,-1.328c-1.243,0 -2.187,0.443 -2.832,1.328Z" style="fill:#fff;fill-rule:nonzero;"/><path d="M306.488,88.986l-0.018,-1.548c-0.363,0.539 -0.838,0.941 -1.424,1.205c-0.587,0.264 -1.261,0.395 -2.023,0.395c-0.621,0 -1.17,-0.12 -1.644,-0.36c-0.475,-0.24 -0.842,-0.572 -1.1,-0.994c-0.258,-0.422 -0.387,-0.897 -0.387,-1.425c0,-0.797 0.308,-1.424 0.924,-1.882c0.615,-0.457 1.462,-0.686 2.541,-0.686l3.096,0l0,-0.703c0,-0.727 -0.217,-1.29 -0.651,-1.689c-0.434,-0.398 -1.067,-0.598 -1.899,-0.598c-0.985,0 -1.976,0.37 -2.973,1.108l-0.528,-0.809c0.622,-0.433 1.214,-0.753 1.777,-0.958c0.563,-0.205 1.208,-0.308 1.935,-0.308c1.114,0 1.975,0.278 2.585,0.835c0.61,0.557 0.921,1.328 0.932,2.313l0.018,6.104l-1.161,0Zm-1.17,-1.504c0.569,-0.381 0.953,-0.918 1.152,-1.61l0,-1.266l-2.972,0c-0.809,0 -1.425,0.135 -1.847,0.405c-0.422,0.269 -0.633,0.674 -0.633,1.213c0,0.551 0.202,0.994 0.607,1.328c0.404,0.334 0.941,0.501 1.609,0.501c0.821,0 1.516,-0.19 2.084,-0.571Z" style="fill:#fff;fill-rule:nonzero;"/><path d="M318.712,79.769l0,9.217l-1.196,0l0,-2.199c-0.305,0.727 -0.759,1.278 -1.363,1.653c-0.604,0.376 -1.334,0.569 -2.19,0.581c-1.09,0 -1.943,-0.32 -2.559,-0.959c-0.615,-0.639 -0.923,-1.515 -0.923,-2.629l0,-5.664l1.196,0l0,5.382c0,0.868 0.237,1.545 0.712,2.032c0.475,0.486 1.129,0.73 1.961,0.73c0.985,-0.012 1.759,-0.349 2.322,-1.012c0.563,-0.662 0.844,-1.533 0.844,-2.612l0,-4.52l1.196,0Z" style="fill:#fff;fill-rule:nonzero;"/><path d="M330.11,79.769l0,8.249c0,0.891 -0.188,1.671 -0.563,2.34c-0.375,0.668 -0.912,1.181 -1.609,1.539c-0.698,0.357 -1.504,0.536 -2.419,0.536c-1.36,0 -2.621,-0.469 -3.781,-1.407l0.562,-0.844c0.469,0.41 0.962,0.721 1.478,0.932c0.516,0.211 1.079,0.317 1.688,0.317c1.056,0 1.897,-0.308 2.524,-0.924c0.628,-0.615 0.941,-1.439 0.941,-2.471l0,-1.495c-0.328,0.645 -0.797,1.149 -1.407,1.512c-0.609,0.364 -1.313,0.546 -2.11,0.546c-0.821,0 -1.551,-0.191 -2.19,-0.572c-0.639,-0.381 -1.138,-0.909 -1.495,-1.583c-0.358,-0.674 -0.537,-1.439 -0.537,-2.295c0,-0.856 0.179,-1.618 0.537,-2.287c0.357,-0.668 0.859,-1.19 1.504,-1.565c0.645,-0.375 1.377,-0.563 2.198,-0.563c0.798,0 1.495,0.179 2.093,0.536c0.598,0.358 1.067,0.865 1.407,1.522l0,-2.023l1.179,0Zm-2.779,7.431c0.504,-0.299 0.897,-0.712 1.178,-1.24c0.282,-0.527 0.422,-1.119 0.422,-1.776c0,-0.668 -0.14,-1.266 -0.422,-1.794c-0.281,-0.528 -0.674,-0.941 -1.178,-1.24c-0.504,-0.299 -1.073,-0.449 -1.706,-0.449c-0.633,0 -1.202,0.15 -1.706,0.449c-0.505,0.299 -0.9,0.712 -1.188,1.24c-0.287,0.528 -0.431,1.126 -0.431,1.794c0,0.668 0.144,1.263 0.431,1.785c0.288,0.522 0.68,0.932 1.179,1.231c0.498,0.299 1.07,0.449 1.715,0.449c0.633,0 1.202,-0.15 1.706,-0.449Z" style="fill:#fff;fill-rule:nonzero;"/><path d="M341.226,79.769l0,9.217l-1.196,0l0,-2.199c-0.305,0.727 -0.759,1.278 -1.363,1.653c-0.604,0.376 -1.334,0.569 -2.19,0.581c-1.09,0 -1.944,-0.32 -2.559,-0.959c-0.616,-0.639 -0.924,-1.515 -0.924,-2.629l0,-5.664l1.197,0l0,5.382c0,0.868 0.237,1.545 0.712,2.032c0.475,0.486 1.128,0.73 1.961,0.73c0.985,-0.012 1.759,-0.349 2.322,-1.012c0.563,-0.662 0.844,-1.533 0.844,-2.612l0,-4.52l1.196,0Z" style="fill:#fff;fill-rule:nonzero;"/><path d="M348.244,80.886c-0.434,-0.123 -0.862,-0.185 -1.284,-0.185c-0.586,0 -1.058,0.115 -1.416,0.343c-0.358,0.229 -0.536,0.572 -0.536,1.029c0,0.317 0.096,0.575 0.29,0.774c0.193,0.2 0.434,0.361 0.721,0.484c0.287,0.123 0.689,0.261 1.205,0.413c0.633,0.188 1.149,0.373 1.548,0.554c0.398,0.182 0.738,0.446 1.02,0.792c0.281,0.346 0.422,0.8 0.422,1.363c0,0.832 -0.317,1.469 -0.95,1.908c-0.633,0.44 -1.425,0.66 -2.374,0.66c-0.669,0 -1.314,-0.112 -1.935,-0.334c-0.622,-0.223 -1.143,-0.54 -1.566,-0.95l0.475,-0.844c0.399,0.363 0.871,0.65 1.416,0.861c0.546,0.212 1.1,0.317 1.662,0.317c0.622,0 1.129,-0.129 1.522,-0.387c0.393,-0.258 0.589,-0.633 0.589,-1.126c0,-0.34 -0.1,-0.618 -0.299,-0.835c-0.199,-0.217 -0.448,-0.387 -0.747,-0.51c-0.299,-0.123 -0.713,-0.267 -1.24,-0.431c-0.622,-0.188 -1.126,-0.369 -1.513,-0.545c-0.387,-0.176 -0.715,-0.431 -0.985,-0.765c-0.27,-0.335 -0.405,-0.771 -0.405,-1.311c0,-0.809 0.302,-1.419 0.906,-1.829c0.604,-0.41 1.357,-0.616 2.26,-0.616c0.528,0 1.038,0.071 1.531,0.211c0.492,0.141 0.932,0.335 1.319,0.581l-0.458,0.897c-0.351,-0.223 -0.744,-0.396 -1.178,-0.519Z" style="fill:#fff;fill-rule:nonzero;"/><path d="M357.197,88.353c-0.633,0.433 -1.314,0.662 -2.041,0.685c-0.703,0 -1.26,-0.216 -1.671,-0.65c-0.41,-0.434 -0.615,-1.085 -0.615,-1.953l0,-5.487l-1.319,0l-0.018,-0.915l1.337,0l0,-2.375l1.178,0l0,2.375l2.99,-0.018l0,0.933l-2.99,0l0,5.294c0,1.137 0.422,1.706 1.267,1.706c0.469,0 0.979,-0.164 1.53,-0.493l0.352,0.898Z" style="fill:#fff;fill-rule:nonzero;"/><path d="M367.24,79.769l0,9.217l-1.196,0l0,-2.199c-0.305,0.727 -0.759,1.278 -1.363,1.653c-0.604,0.376 -1.334,0.569 -2.19,0.581c-1.091,0 -1.944,-0.32 -2.559,-0.959c-0.616,-0.639 -0.924,-1.515 -0.924,-2.629l0,-5.664l1.196,0l0,5.382c0,0.868 0.238,1.545 0.713,2.032c0.475,0.486 1.128,0.73 1.961,0.73c0.985,-0.012 1.759,-0.349 2.322,-1.012c0.562,-0.662 0.844,-1.533 0.844,-2.612l0,-4.52l1.196,0Z" style="fill:#fff;fill-rule:nonzero;"/><path d="M374.258,80.886c-0.434,-0.123 -0.862,-0.185 -1.284,-0.185c-0.586,0 -1.058,0.115 -1.416,0.343c-0.358,0.229 -0.536,0.572 -0.536,1.029c0,0.317 0.096,0.575 0.29,0.774c0.193,0.2 0.434,0.361 0.721,0.484c0.287,0.123 0.689,0.261 1.205,0.413c0.633,0.188 1.149,0.373 1.548,0.554c0.398,0.182 0.738,0.446 1.02,0.792c0.281,0.346 0.422,0.8 0.422,1.363c0,0.832 -0.317,1.469 -0.95,1.908c-0.633,0.44 -1.425,0.66 -2.374,0.66c-0.669,0 -1.314,-0.112 -1.935,-0.334c-0.622,-0.223 -1.143,-0.54 -1.566,-0.95l0.475,-0.844c0.399,0.363 0.871,0.65 1.416,0.861c0.545,0.212 1.099,0.317 1.662,0.317c0.622,0 1.129,-0.129 1.522,-0.387c0.393,-0.258 0.589,-0.633 0.589,-1.126c0,-0.34 -0.1,-0.618 -0.299,-0.835c-0.199,-0.217 -0.449,-0.387 -0.748,-0.51c-0.299,-0.123 -0.712,-0.267 -1.24,-0.431c-0.621,-0.188 -1.125,-0.369 -1.512,-0.545c-0.387,-0.176 -0.715,-0.431 -0.985,-0.765c-0.27,-0.335 -0.405,-0.771 -0.405,-1.311c0,-0.809 0.302,-1.419 0.906,-1.829c0.604,-0.41 1.357,-0.616 2.26,-0.616c0.528,0 1.038,0.071 1.53,0.211c0.493,0.141 0.933,0.335 1.32,0.581l-0.458,0.897c-0.351,-0.223 -0.744,-0.396 -1.178,-0.519Z" style="fill:#fff;fill-rule:nonzero;"/></g></svg>